<svg width="63.927605" height="39.817001" viewBox="0 0 63.9276 39.817" fill="none" xmlns="http://www.w3.org/2000/svg" xmlns:xlink="http://www.w3.org/1999/xlink">
	<desc>
			Created with Pixso.
	</desc>
	<defs>
		<linearGradient id="paint_linear_1_17_0" x1="12.653305" y1="0.000000" x2="12.653305" y2="39.817001" gradientUnits="userSpaceOnUse">
			<stop stop-color="#7E5FFF"/>
			<stop offset="1.000000" stop-color="#39AAFF"/>
		</linearGradient>
	</defs>
	<path id="Vector" d="M35.2002 27.7811L37.8098 27.7811L37.8098 22.3348L41.5345 22.3348C44.6794 22.3348 46.6868 20.2008 46.6868 17.2219C46.6868 14.3321 44.724 12.2202 41.5345 12.2202L35.2002 12.2202L35.2002 27.7811ZM37.8098 19.9785L37.8098 14.5544L41.0885 14.5544C42.8951 14.5544 44.0103 15.5102 44.0103 17.2219C44.0103 19.0226 42.962 19.9785 41.0885 19.9785L37.8098 19.9785Z" fill="#000000" fill-opacity="1.000000" fill-rule="nonzero"/>
	<path id="Vector" d="M46.306 27.9812C47.332 27.9812 47.9119 27.3365 47.9119 26.3584C47.9119 25.3803 47.332 24.7356 46.306 24.7356C45.2354 24.7356 44.6778 25.3803 44.6778 26.3584C44.6778 27.3365 45.2354 27.9812 46.306 27.9812Z" fill="#000000" fill-opacity="1.000000" fill-rule="nonzero"/>
	<path id="Vector" d="M53.0009 27.9812C54.5399 27.9812 55.722 27.4032 56.3911 26.4251L56.4803 26.4251L56.6588 27.7811L58.8892 27.7811L58.8892 20.1341C58.8892 17.8666 57.1718 16.1105 54.1384 16.1105C51.2389 16.1105 49.5215 17.7332 49.5215 19.9118L51.9303 19.9118C51.9526 18.9781 52.6887 18.2001 54.0938 18.2001C55.6997 18.2001 56.3688 19.0893 56.3688 20.1563L56.3688 21.2233C55.7666 21.0455 54.7406 20.8454 53.6923 20.8454C50.3913 20.8454 48.9862 22.4015 48.9862 24.4022C48.9862 26.4251 50.4583 27.9812 53.0009 27.9812ZM53.5808 25.9583C52.198 25.9583 51.5288 25.2469 51.5288 24.3133C51.5288 23.2907 52.3318 22.6683 53.8708 22.6683C54.7183 22.6683 55.5213 22.7794 56.3688 23.0684L56.3688 23.4463C56.3688 24.8023 55.2759 25.9583 53.5808 25.9583Z" fill="#000000" fill-opacity="1.000000" fill-rule="nonzero"/>
	<path id="Vector" d="M62.2994 14.5544C63.3477 14.5544 63.9276 13.9319 63.9276 12.9538C63.9276 11.9757 63.3477 11.3755 62.2994 11.3755C61.2288 11.3755 60.6712 11.9757 60.6712 12.9538C60.6712 13.9319 61.2288 14.5544 62.2994 14.5544ZM61.0281 27.7811L63.5708 27.7811L63.5708 16.3105L61.0281 16.3105L61.0281 27.7811Z" fill="#000000" fill-opacity="1.000000" fill-rule="nonzero"/>
	<path id="Vector" d="M25.3065 3.88703L18.3803 0L0 9.8804L0 17.6816L4.3594 20L0.00991058 22.3638L0.00991058 36.0532L6.94283 39.817L13.9115 36.0731L13.9115 29.9562L25.3065 23.8309L25.3065 3.88703ZM2.51652 11.3427L18.3809 2.80915L21.5032 4.56964L6.95204 12.3099L6.95204 15.08L22.8195 6.64923L22.8099 22.3473L11.4198 28.5086L11.4198 34.6509L6.96838 37.0545L2.5066 34.6347L2.5066 23.8189L17.1074 15.9063L17.1074 19.2055L5.71734 25.4343L5.71734 33.0149L8.21401 31.6727L8.21401 26.8601L19.609 20.6201L19.609 11.7369L6.9604 18.5916L2.51652 16.2223L2.51652 11.3427Z" fill="url(#paint_linear_1_17_0)" fill-opacity="1.000000" fill-rule="evenodd"/>
</svg>
